HIERARCHY
ROOT hip
{
  OFFSET 0 0 0
  CHANNELS 6 Xposition Yposition Zposition Zrotation Yrotation Xrotation
  JOINT abdomen
  {
    OFFSET 0 20.6881 -0.73152
    CHANNELS 3 Zrotation Xrotation Yrotation
    JOINT chest
    {
      OFFSET 0 11.7043 -0.48768
      CHANNELS 3 Zrotation Xrotation Yrotation
      JOINT neck
      {
        OFFSET 0 22.1894 -2.19456
        CHANNELS 3 Zrotation Xrotation Yrotation
        JOINT head
        {
          OFFSET -0.24384 7.07133 1.2192
          CHANNELS 3 Zrotation Xrotation Yrotation
          JOINT leftEye
          {
            OFFSET 4.14528 8.04674 8.04672
            CHANNELS 3 Zrotation Xrotation Yrotation
            End Site
            {
              OFFSET 1 0 0
            }
          }
          JOINT rightEye
          {
            OFFSET -3.6576 8.04674 8.04672
            CHANNELS 3 Zrotation Xrotation Yrotation
            End Site
            {
              OFFSET 1 0 0
            }
          }
        }
      }
      JOINT rCollar
      {
        OFFSET -2.68224 19.2634 -4.8768
        CHANNELS 3 Zrotation Xrotation Yrotation
        JOINT rShldr
        {
          OFFSET -8.77824 -1.95073 1.46304
          CHANNELS 3 Zrotation Xrotation Yrotation
          JOINT rForeArm
          {
            OFFSET -28.1742 -1.7115 0.48768
            CHANNELS 3 Zrotation Xrotation Yrotation
            JOINT rHand
            {
              OFFSET -22.5879 0.773209 7.07136
              CHANNELS 3 Zrotation Xrotation Yrotation
              JOINT rThumb1
              {
                OFFSET -1.2192 -0.487915 3.41376
                CHANNELS 3 Zrotation Xrotation Yrotation
                JOINT rThumb2
                {
                  OFFSET -3.37035 -0.52449 3.41376
                  CHANNELS 3 Zrotation Xrotation Yrotation
                  End Site
                  {
                    OFFSET -1.78271 -1.18214 1.43049
                  }
                }
              }
              JOINT rIndex1
              {
                OFFSET -7.75947 0.938293 5.60832
                CHANNELS 3 Zrotation Xrotation Yrotation
                JOINT rIndex2
                {
                  OFFSET -2.54057 -0.884171 1.56538
                  CHANNELS 3 Zrotation Xrotation Yrotation
                  End Site
                  {
                    OFFSET -1.62519 -0.234802 1.16502
                  }
                }
              }
              JOINT rMid1
              {
                OFFSET -8.24714 1.18213 3.41376
                CHANNELS 3 Zrotation Xrotation Yrotation
                JOINT rMid2
                {
                  OFFSET -3.10165 -0.590103 1.0647
                  CHANNELS 3 Zrotation Xrotation Yrotation
                  End Site
                  {
                    OFFSET -2.48547 -0.328903 0.83742
                  }
                }
              }
              JOINT rRing1
              {
                OFFSET -8.82822 0.546677 1.51678
                CHANNELS 3 Zrotation Xrotation Yrotation
                JOINT rRing2
                {
                  OFFSET -2.60934 -0.819778 -0.0198488
                  CHANNELS 3 Zrotation Xrotation Yrotation
                  End Site
                  {
                    OFFSET -2.33842 -0.294052 0.168128
                  }
                }
              }
              JOINT rPinky1
              {
                OFFSET -8.27202 -0.0477905 -0.4584
                CHANNELS 3 Zrotation Xrotation Yrotation
                JOINT rPinky2
                {
                  OFFSET -1.82734 -0.647385 -0.700984
                  CHANNELS 3 Zrotation Xrotation Yrotation
                  End Site
                  {
                    OFFSET -1.69225 -0.51767 -0.607171
                  }
                }
              }
            }
          }
        }
      }
      JOINT lCollar
      {
        OFFSET 2.68224 19.2634 -4.8768
        CHANNELS 3 Zrotation Xrotation Yrotation
        JOINT lShldr
        {
          OFFSET 8.77824 -1.95073 1.46304
          CHANNELS 3 Zrotation Xrotation Yrotation
          JOINT lForeArm
          {
            OFFSET 28.1742 -1.7115 0.48768
            CHANNELS 3 Zrotation Xrotation Yrotation
            JOINT lHand
            {
              OFFSET 22.5879 0.773209 7.07136
              CHANNELS 3 Zrotation Xrotation Yrotation
              JOINT lThumb1
              {
                OFFSET 1.2192 -0.487915 3.41376
                CHANNELS 3 Zrotation Xrotation Yrotation
                JOINT lThumb2
                {
                  OFFSET 3.37035 -0.52449 3.41376
                  CHANNELS 3 Zrotation Xrotation Yrotation
                  End Site
                  {
                    OFFSET 1.78271 -1.18214 1.43049
                  }
                }
              }
              JOINT lIndex1
              {
                OFFSET 7.75947 0.938293 5.60832
                CHANNELS 3 Zrotation Xrotation Yrotation
                JOINT lIndex2
                {
                  OFFSET 2.54057 -0.884171 1.56538
                  CHANNELS 3 Zrotation Xrotation Yrotation
                  End Site
                  {
                    OFFSET 1.62519 -0.234802 1.16502
                  }
                }
              }
              JOINT lMid1
              {
                OFFSET 8.24714 1.18213 3.41376
                CHANNELS 3 Zrotation Xrotation Yrotation
                JOINT lMid2
                {
                  OFFSET 3.10165 -0.590103 1.0647
                  CHANNELS 3 Zrotation Xrotation Yrotation
                  End Site
                  {
                    OFFSET 2.48547 -0.328903 0.83742
                  }
                }
              }
              JOINT lRing1
              {
                OFFSET 8.82822 0.546677 1.51678
                CHANNELS 3 Zrotation Xrotation Yrotation
                JOINT lRing2
                {
                  OFFSET 2.60934 -0.819778 -0.0198488
                  CHANNELS 3 Zrotation Xrotation Yrotation
                  End Site
                  {
                    OFFSET 2.33842 -0.294052 0.168128
                  }
                }
              }
              JOINT lPinky1
              {
                OFFSET 8.27202 -0.0477905 -0.4584
                CHANNELS 3 Zrotation Xrotation Yrotation
                JOINT lPinky2
                {
                  OFFSET 1.82734 -0.647385 -0.700984
                  CHANNELS 3 Zrotation Xrotation Yrotation
                  End Site
                  {
                    OFFSET 1.69225 -0.51767 -0.607171
                  }
                }
              }
            }
          }
        }
      }
    }
  }
  JOINT rButtock
  {
    OFFSET -8.77824 4.35084 1.2192
    CHANNELS 3 Zrotation Xrotation Yrotation
    JOINT rThigh
    {
      OFFSET 0 -1.70687 -2.19456
      CHANNELS 3 Zrotation Xrotation Yrotation
      JOINT rShin
      {
        OFFSET 0 -36.8199 0.73152
        CHANNELS 3 Zrotation Xrotation Yrotation
        JOINT rFoot
        {
          OFFSET 0.73152 -45.1104 -5.12064
          CHANNELS 3 Zrotation Xrotation Yrotation
          End Site
          {
            OFFSET -1.1221 -3.69964 12.103
          }
        }
      }
    }
  }
  JOINT lButtock
  {
    OFFSET 8.77824 4.35084 1.2192
    CHANNELS 3 Zrotation Xrotation Yrotation
    JOINT lThigh
    {
      OFFSET 0 -1.70687 -2.19456
      CHANNELS 3 Zrotation Xrotation Yrotation
      JOINT lShin
      {
        OFFSET 0 -36.8199 0.73152
        CHANNELS 3 Zrotation Xrotation Yrotation
        JOINT lFoot
        {
          OFFSET -0.73152 -45.1104 -5.12064
          CHANNELS 3 Zrotation Xrotation Yrotation
          End Site
          {
            OFFSET 1.1221 -3.69964 12.103
          }
        }
      }
    }
  }
}
MOTION
Frames:	8
Frame Time:	0.00833333
7.19929 74.0389 -33.6626 -3.1068 -2.4608 25.8757 -6.12658 41.4047 12.7017 4.32967 -1.31587 2.93464 -3.4938 -0.656356 -2.12381 -12.1749 -2.11576 -3.31523 -0.0 0.0 0.0 -0.0 0.0 0.0 1.43287e-14 -7.38102e-15 -1.05679e-13 34.8564 12.8808 59.3582 -16.5287 -9.18789 30.7966 -0.0976125 -8.8708 -1.25689 -4.41854e-10 3.64501e-11 3.54936e-10 -7.68063e-10 6.71713e-11 6.1243e-10 -4.41854e-10 3.64552e-11 3.54931e-10 7.73091 5.47488 0.417314 -4.41861e-10 3.6452e-11 3.5494e-10 2.90554 0.965183 0.102902 -4.41849e-10 3.64541e-11 3.54941e-10 10.2786 0.731801 0.0259123 -4.41853e-10 3.64523e-11 3.54949e-10 2.22167 -0.733487 -0.20892 1.42425e-14 -7.37934e-15 -1.0599e-13 17.8914 53.847 -81.1357 25.0418 -21.1863 -53.0935 0.202619 12.7107 -1.81664 -1.46315e-10 5.06025e-10 7.37232e-11 -2.50561e-10 8.77493e-10 1.31649e-10 -1.46322e-10 5.06024e-10 7.37227e-11 -7.73091 5.47488 -0.417314 -1.46316e-10 5.06024e-10 7.37245e-11 -2.90554 0.965183 -0.102902 -1.46319e-10 5.06023e-10 7.37187e-11 -10.2786 0.731801 -0.0259123 -1.46305e-10 5.06024e-10 7.37091e-11 -2.22167 -0.733487 0.20892 -2.03217e-16 0.0 -3.88251e-19 -27.9404 -60.9868 -29.2328 -0.611979 50.2 1.0174 -1.09625 -4.44449 -6.75984 2.03217e-16 0.0 3.88251e-19 22.8332 -69.1269 21.0534 0.467126 48.0872 -1.15881 -1.42261 -2.29144 -10.7414
7.16321 73.8354 -33.8545 -2.8994 -2.1514 26.7041 -5.88102 41.8885 12.7848 4.31108 -1.34102 2.97375 -3.70134 -0.603673 -2.39433 -11.9895 -2.71504 -3.84723 -0.0 0.0 0.0 -0.0 0.0 0.0 1.91141e-14 -3.18308e-15 -1.39646e-14 34.406 11.782 59.8566 -16.4017 -9.0659 30.5253 -0.0962033 -8.8124 -1.24846 -1.03734e-09 7.63095e-10 -3.27979e-11 -1.79445e-09 1.32477e-09 -6.25965e-11 -1.03735e-09 7.63101e-10 -3.28011e-11 7.73091 5.47488 0.417314 -1.03735e-09 7.63098e-10 -3.27915e-11 2.90554 0.965183 0.102902 -1.03734e-09 7.63101e-10 -3.27907e-11 10.2786 0.731801 0.0259123 -1.03734e-09 7.631e-10 -3.2782e-11 2.22167 -0.733487 -0.20892 1.90538e-14 -3.17861e-15 -1.42628e-14 17.6264 53.6612 -80.764 25.1855 -21.4998 -53.6143 0.211585 12.9916 -1.85812 -5.1081e-11 4.39107e-11 3.56244e-10 -8.35524e-11 7.55509e-11 6.15931e-10 -5.10877e-11 4.39099e-11 3.56241e-10 -7.73091 5.47488 -0.417314 -5.10821e-11 4.39099e-11 3.56244e-10 -2.90554 0.965183 -0.102902 -5.10843e-11 4.39095e-11 3.56239e-10 -10.2786 0.731801 -0.0259123 -5.1071e-11 4.39099e-11 3.56228e-10 -2.22167 -0.733487 0.20892 -2.03217e-16 0.0 -3.88251e-19 -29.2917 -61.4809 -30.7581 -0.631606 50.7866 1.04397 -1.11011 -4.6392 -6.73943 2.03217e-16 0.0 3.88251e-19 23.2423 -70.031 21.6532 0.475855 48.3403 -1.16352 -1.45601 -2.1637 -11.1613
7.15416 73.7891 -33.8701 -2.4413 -1.5167 26.8529 -5.71147 42.6477 12.9363 4.28766 -1.48945 3.02083 -3.87278 -0.528134 -2.67808 -11.86 -3.37588 -4.42478 -0.0 0.0 0.0 -0.0 0.0 0.0 1.40842e-14 -6.05095e-14 4.4367e-14 34.0011 10.644 60.2849 -16.2752 -8.94548 30.2557 -0.0923677 -8.64363 -1.22415 -2.00241e-09 1.2673e-09 1.5333e-10 -3.46267e-09 2.19906e-09 2.5535e-10 -2.00241e-09 1.26731e-09 1.53325e-10 7.73091 5.47488 0.417314 -2.00242e-09 1.2673e-09 1.53336e-10 2.90554 0.965183 0.102902 -2.00241e-09 1.26731e-09 1.53337e-10 10.2786 0.731801 0.0259123 -2.00241e-09 1.26731e-09 1.53346e-10 2.22167 -0.733487 -0.20892 1.40323e-14 -6.05012e-14 4.40801e-14 17.515 53.436 -80.5375 25.3121 -21.7819 -54.0844 0.224045 13.3671 -1.91376 2.7577e-10 -1.46239e-10 2.60937e-10 4.80563e-10 -2.53384e-10 4.47087e-10 2.75764e-10 -1.46239e-10 2.60934e-10 -7.73091 5.47488 -0.417314 2.75769e-10 -1.46239e-10 2.60936e-10 -2.90554 0.965183 -0.102902 2.75766e-10 -1.4624e-10 2.60932e-10 -10.2786 0.731801 -0.0259123 2.7578e-10 -1.46239e-10 2.6092e-10 -2.22167 -0.733487 0.20892 -2.03217e-16 0.0 -3.88251e-19 -30.4829 -61.7996 -31.9674 -0.647655 51.2619 1.06697 -1.15217 -4.67779 -6.97299 2.03217e-16 0.0 3.88251e-19 23.2398 -70.7 21.8455 0.482573 48.5267 -1.1667 -1.49516 -2.09051 -11.5522
7.0914 73.6797 -33.9105 -2.1602 -0.932 27.095 -5.59066 43.5884 13.1301 4.26363 -1.71853 3.07212 -4.02594 -0.442991 -2.97146 -11.7607 -4.06102 -5.03113 -0.0 0.0 0.0 -0.0 0.0 0.0 2.26279e-15 -1.57643e-13 8.94469e-14 33.618 9.47782 60.6763 -16.1436 -8.82118 29.9767 -0.0866491 -8.37854 -1.18604 -3.25196e-09 1.68477e-09 6.78881e-10 -5.62429e-09 2.92427e-09 1.16028e-09 -3.25196e-09 1.68477e-09 6.78873e-10 7.73091 5.47488 0.417314 -3.25197e-09 1.68477e-09 6.78886e-10 2.90554 0.965183 0.102902 -3.25196e-09 1.68477e-09 6.78887e-10 10.2786 0.731801 0.0259123 -3.25197e-09 1.68477e-09 6.78897e-10 2.22167 -0.733487 -0.20892 2.20994e-15 -1.5763e-13 8.91705e-14 17.508 53.181 -80.4107 25.4267 -22.0432 -54.5146 0.239115 13.7997 -1.97814 7.7793e-10 -2.11969e-10 -6.16642e-11 1.34576e-09 -3.65689e-10 -1.15176e-10 7.77923e-10 -2.1197e-10 -6.16656e-11 -7.73091 5.47488 -0.417314 7.77928e-10 -2.1197e-10 -6.16654e-11 -2.90554 0.965183 -0.102902 7.77924e-10 -2.1197e-10 -6.1669e-11 -10.2786 0.731801 -0.0259123 7.77939e-10 -2.1197e-10 -6.16817e-11 -2.22167 -0.733487 0.20892 -2.03217e-16 0.0 -3.88251e-19 -31.5854 -62.0109 -33.0058 -0.664516 51.7478 1.09114 -1.21396 -4.65215 -7.35666 2.03217e-16 0.0 3.88251e-19 22.914 -71.2171 21.7146 0.487796 48.6639 -1.16822 -1.53584 -2.03954 -11.9258
6.98243 73.5366 -33.9557 -2.0359 -0.5772 27.4566 -5.50114 44.5562 13.3476 4.24067 -1.94954 3.12461 -4.19592 -0.360834 -3.2643 -11.6572 -4.75369 -5.6319 -0.0 0.0 0.0 -0.0 0.0 0.0 -9.0863e-15 -2.51496e-13 1.22715e-13 33.2075 8.29234 61.0577 -16.0049 -8.69152 29.6835 -0.0815092 -8.12428 -1.14956 -4.31101e-09 1.95492e-09 1.21423e-09 -7.45676e-09 3.39411e-09 2.08319e-09 -4.311e-09 1.95492e-09 1.21422e-09 7.73091 5.47488 0.417314 -4.31101e-09 1.95492e-09 1.21423e-09 2.90554 0.965183 0.102902 -4.311e-09 1.95491e-09 1.21423e-09 10.2786 0.731801 0.0259123 -4.31102e-09 1.95492e-09 1.21424e-09 2.22167 -0.733487 -0.20892 -9.14046e-15 -2.51479e-13 1.2245e-13 17.4751 52.9401 -80.2876 25.5392 -22.3049 -54.9384 0.255565 14.2503 -2.04549 1.21306e-09 -2.186e-10 -4.02788e-10 2.09489e-09 -3.75505e-10 -7.08367e-10 1.21306e-09 -2.18601e-10 -4.02787e-10 -7.73091 5.47488 -0.417314 1.21306e-09 -2.18602e-10 -4.02789e-10 -2.90554 0.965183 -0.102902 1.21305e-09 -2.18601e-10 -4.02791e-10 -10.2786 0.731801 -0.0259123 1.21307e-09 -2.18601e-10 -4.02805e-10 -2.22167 -0.733487 0.20892 -2.03217e-16 0.0 -3.88251e-19 -32.6618 -62.22 -33.9911 -0.682011 52.2386 1.11626 -1.28349 -4.62259 -7.7845 2.03217e-16 0.0 3.88251e-19 22.5199 -71.6938 21.5163 0.492787 48.7934 -1.16961 -1.57743 -2.01635 -12.2634
6.89278 73.4051 -33.9814 -1.858 -0.2699 27.7958 -5.42064 45.397 13.5644 4.22011 -2.10377 3.1752 -4.41814 -0.294235 -3.54645 -11.5129 -5.43743 -6.19247 -0.0 0.0 0.0 -0.0 0.0 0.0 -1.26993e-14 -2.98981e-13 1.4561e-13 32.7217 7.09762 61.4545 -15.8569 -8.55495 29.3712 -0.0789056 -7.98808 -1.13005 -4.70456e-09 2.01715e-09 1.42975e-09 -8.13753e-09 3.50228e-09 2.45509e-09 -4.70454e-09 2.01714e-09 1.42973e-09 7.73091 5.47488 0.417314 -4.70456e-09 2.01714e-09 1.42975e-09 2.90554 0.965183 0.102902 -4.70455e-09 2.01714e-09 1.42975e-09 10.2786 0.731801 0.0259123 -4.70457e-09 2.01714e-09 1.42976e-09 2.22167 -0.733487 -0.20892 -1.27461e-14 -2.98963e-13 1.45361e-13 17.2875 52.7559 -80.0738 25.6578 -22.5864 -55.3905 0.271805 14.6795 -2.10991 1.33883e-09 -2.31452e-10 -5.53661e-10 2.31083e-09 -3.96971e-10 -9.69993e-10 1.33883e-09 -2.31453e-10 -5.53658e-10 -7.73091 5.47488 -0.417314 1.33883e-09 -2.31454e-10 -5.53661e-10 -2.90554 0.965183 -0.102902 1.33882e-09 -2.31453e-10 -5.53664e-10 -10.2786 0.731801 -0.0259123 1.33884e-09 -2.31453e-10 -5.53677e-10 -2.22167 -0.733487 0.20892 -2.03217e-16 0.0 -3.88251e-19 -33.7951 -62.5271 -35.0602 -0.699934 52.7284 1.14207 -1.35042 -4.64943 -8.15073 2.03217e-16 0.0 3.88251e-19 22.3416 -72.2419 21.5358 0.498844 48.9568 -1.17245 -1.61939 -2.02652 -12.5461
6.85981 73.2593 -34.0297 -1.5742 0.0017 28.2669 -5.36762 46.0797 13.7868 4.19886 -2.1383 3.22297 -4.73479 -0.267564 -3.81558 -11.2898 -6.11006 -6.69206 -0.0 0.0 0.0 -0.0 0.0 0.0 -1.28355e-15 -2.84904e-13 1.61047e-13 32.1152 5.8815 61.9033 -15.6979 -8.40976 29.037 -0.0802687 -8.05585 -1.13977 -4.15805e-09 1.78222e-09 1.155e-09 -7.19123e-09 3.09329e-09 1.98213e-09 -4.15804e-09 1.78221e-09 1.15499e-09 7.73091 5.47488 0.417314 -4.15805e-09 1.78221e-09 1.155e-09 2.90554 0.965183 0.102902 -4.15805e-09 1.78221e-09 1.155e-09 10.2786 0.731801 0.0259123 -4.15806e-09 1.78222e-09 1.15501e-09 2.22167 -0.733487 -0.20892 -1.30705e-15 -2.84887e-13 1.60822e-13 16.8656 52.6318 -79.718 25.7837 -22.8919 -55.8834 0.286815 15.064 -2.16783 9.45355e-10 -2.74772e-10 -3.9222e-10 1.6318e-09 -4.72513e-10 -6.87172e-10 9.4535e-10 -2.74773e-10 -3.92215e-10 -7.73091 5.47488 -0.417314 9.45354e-10 -2.74774e-10 -3.92217e-10 -2.90554 0.965183 -0.102902 9.45347e-10 -2.74773e-10 -3.92221e-10 -10.2786 0.731801 -0.0259123 9.45364e-10 -2.74773e-10 -3.92233e-10 -2.22167 -0.733487 0.20892 -2.03217e-16 0.0 -3.88251e-19 -35.0101 -62.9707 -36.2355 -0.718681 53.2274 1.16912 -1.41568 -4.74537 -8.44144 2.03217e-16 0.0 3.88251e-19 22.493 -72.8748 21.9019 0.506841 49.1799 -1.17777 -1.66542 -2.103 -12.7421
6.82203 73.0995 -34.0877 -1.3476 0.2676 28.8032 -5.3447 46.6832 14.0216 4.17705 -2.10244 3.26957 -5.11669 -0.267078 -4.07699 -11.0144 -6.77975 -7.15315 -0.0 0.0 0.0 -0.0 0.0 0.0 1.95016e-14 -2.33479e-13 1.67414e-13 31.4272 4.6502 62.3888 -15.529 -8.25689 28.6841 -0.0842357 -8.25132 -1.16781 -2.97413e-09 1.30681e-09 5.93294e-10 -5.14189e-09 2.26622e-09 1.01516e-09 -2.97412e-09 1.30681e-09 5.93286e-10 7.73091 5.47488 0.417314 -2.97412e-09 1.3068e-09 5.933e-10 2.90554 0.965183 0.102902 -2.97412e-09 1.3068e-09 5.93295e-10 10.2786 0.731801 0.0259123 -2.97413e-09 1.30681e-09 5.93298e-10 2.22167 -0.733487 -0.20892 1.95111e-14 -2.33466e-13 1.67218e-13 16.2931 52.546 -79.2786 25.9114 -23.2097 -56.3986 0.301461 15.4289 -2.22302 2.103e-10 -3.11447e-10 -5.19396e-11 3.63783e-10 -5.37259e-10 -9.19715e-11 2.10295e-10 -3.11447e-10 -5.19329e-11 -7.73091 5.47488 -0.417314 2.10299e-10 -3.11447e-10 -5.19317e-11 -2.90554 0.965183 -0.102902 2.10293e-10 -3.11448e-10 -5.19385e-11 -10.2786 0.731801 -0.0259123 2.10308e-10 -3.11446e-10 -5.19476e-11 -2.22167 -0.733487 0.20892 -2.03217e-16 0.0 -3.88251e-19 -36.2831 -63.4915 -37.4706 -0.738321 53.7346 1.19745 -1.48449 -4.87928 -8.70841 2.03217e-16 0.0 3.88251e-19 22.8452 -73.537 22.4795 0.515967 49.4358 -1.18458 -1.71528 -2.23222 -12.8704
